<?xml version="1.0" encoding="UTF-8" standalone="no"?>
<svg
   xmlns:dc="http://purl.org/dc/elements/1.1/"
   xmlns:cc="http://creativecommons.org/ns#"
   xmlns:rdf="http://www.w3.org/1999/02/22-rdf-syntax-ns#"
   xmlns:svg="http://www.w3.org/2000/svg"
   xmlns="http://www.w3.org/2000/svg"
   xmlns:sodipodi="http://sodipodi.sourceforge.net/DTD/sodipodi-0.dtd"
   xmlns:inkscape="http://www.inkscape.org/namespaces/inkscape"
   version="1.1"
   viewBox="0 0 800 800"
   id="svg4696"
   sodipodi:docname="logo.svg"
   enable-background="new"
   inkscape:version="0.92.1 r15371">
  <metadata
     id="metadata4700">
    <rdf:RDF>
      <cc:Work
         rdf:about="">
        <dc:format>image/svg+xml</dc:format>
        <dc:type
           rdf:resource="http://purl.org/dc/dcmitype/StillImage" />
      </cc:Work>
    </rdf:RDF>
  </metadata>
  <sodipodi:namedview
     pagecolor="#ffffff"
     bordercolor="#666666"
     borderopacity="1"
     objecttolerance="10"
     gridtolerance="10"
     guidetolerance="10"
     inkscape:pageopacity="0"
     inkscape:pageshadow="2"
     inkscape:window-width="1920"
     inkscape:window-height="1017"
     id="namedview4698"
     showgrid="false"
     inkscape:zoom="0.417193"
     inkscape:cx="667.41987"
     inkscape:cy="301.86195"
     inkscape:window-x="-8"
     inkscape:window-y="-8"
     inkscape:window-maximized="1"
     inkscape:current-layer="svg4696" />
  <defs
     id="defs4690">
    <filter
       id="backlight"
       x="-50%"
       y="-50%"
       width="200%"
       height="200%">
      <feFlood
         flood-color="#009cff"
         result="lightColor"
         id="feFlood4677" />
      <feGaussianBlur
         in="SourceAlpha"
         result="lightShape"
         stdDeviation="60"
         id="feGaussianBlur4679" />
      <feComposite
         in="lightColor"
         in2="lightShape"
         operator="in"
         result="backLightResult"
         id="feComposite4681" />
      <feMerge
         id="feMerge4687">
        <feMergeNode
           in="backLightResult"
           id="feMergeNode4683" />
        <feMergeNode
           in="SourceGraphic"
           id="feMergeNode4685" />
      </feMerge>
    </filter>
    <filter
       inkscape:collect="always"
       style="color-interpolation-filters:sRGB"
       id="filter5070"
       x="-0.08875965"
       width="1.1775193"
       y="-0.19101213"
       height="1.3820243">
      <feGaussianBlur
         inkscape:collect="always"
         stdDeviation="23.663866"
         id="feGaussianBlur5072" />
    </filter>
    <filter
       inkscape:collect="always"
       style="color-interpolation-filters:sRGB"
       id="filter5528"
       x="-0.11430739"
       width="1.2286148"
       y="-0.060590694"
       height="1.1211814">
      <feGaussianBlur
         inkscape:collect="always"
         stdDeviation="10.097236"
         id="feGaussianBlur5530" />
    </filter>
  </defs>
  <rect
     style="fill:#1f1f1f"
     y="0"
     x="0"
     width="100%"
     height="100%"
     id="backFill" />
  <g
     id="g5536"
     transform="translate(0,30)">
    <path
       transform="matrix(0.92482801,0,0,0.92482801,30.068997,-41.846167)"
       sodipodi:nodetypes="cccccccccccccccc"
       inkscape:connector-curvature="0"
       id="bottomBlur"
       d="m 348.88867,371.87109 c -80.29364,32.53077 -166.47484,51.42482 -242.56836,94.11329 -24.169577,17.61108 -34.605835,54.04581 -18.537107,80.33984 14.374767,26.05629 43.301217,39.70501 71.112077,46.34246 62.43154,18.53837 184.48027,64.45859 257.45513,66.13151 0.0827,-74.22328 -64.67906,-213.78778 -64.72736,-288.01108 -0.91146,0.36133 -1.82292,0.72266 -2.73438,1.08398 z m 106.60352,14.60938 c -22.86821,-0.0392 -40.4529,24.33252 -36.37891,46.14258 -7.10227,2.5342 -14.09301,5.36484 -21.17773,7.94726 0.001,75.84831 18.41386,142.37958 18.41486,218.22788 95.58146,-39.81496 178.56477,-55.75841 271.76297,-101.59311 22.39526,-15.06022 37.61206,-44.06084 29.69788,-71.02902 C 709.73033,458.01544 683.4556,439.04774 656.299,431.31505 604.81269,411.52076 548.28225,407.04021 493.79883,413.9043 488.57346,397.91587 472.41082,386.02785 455.49219,386.48047 Z"
       style="fill:#2b98e3;fill-opacity:1;stroke-width:0.88241476;filter:url(#filter5070)" />
    <path
       sodipodi:nodetypes="cccccccccccccccccccccccccccccc"
       d="m 654.50368,434.23357 c -10.12595,12.77168 -34.92423,21.87997 -34.92423,21.87997 l -184.49163,66.2683 V 473.51322 L 570.85936,425.1367 c 15.40763,-5.52234 17.77345,-13.32416 5.25019,-17.42253 -12.49993,-4.10906 -35.13641,-2.93129 -50.55464,2.61456 l -90.47084,31.86229 v -50.71949 l 5.21615,-1.76404 c 0,0 26.14074,-9.25192 62.90277,-13.32417 36.75878,-4.04882 81.7714,0.55223 117.09959,13.94684 39.82154,12.58398 44.30427,31.13189 34.19384,43.90439 z M 452.64582,351.0177 c -6.3e-4,5.8e-4 0.004,9.3e-4 0.003,8.2e-4 z M 179.79701,468.40292 c -40.88081,-11.51329 -47.68366,-35.50038 -29.05089,-49.3191 17.22178,-12.75862 46.50851,-22.3639 46.50851,-22.3639 l 121.02495,-43.03281 v 49.05957 l -87.09227,31.16617 c -15.38396,5.51973 -17.74978,13.33478 -5.24756,17.43069 12.51053,4.096 35.15762,2.93128 50.56524,-2.6015 l 41.77361,-15.15873 v 43.89133 c -2.64868,0.47111 -5.60085,0.94225 -8.33302,1.40024 -41.78666,6.82832 -86.2925,3.97824 -130.14873,-10.47441 z"
       id="S"
       style="fill:#ffffff;fill-opacity:1;stroke-width:0.81608188"
       inkscape:connector-curvature="0" />
    <path
       d="M 452.64582,351.0177 V 226.03476 c 0,-14.67723 -2.70882,-28.18747 -16.48077,-32.01408 -10.54704,-3.37882 -17.09039,6.41221 -17.09039,21.0794 v 312.9674 l -84.40734,-26.79034 v -373.1616 c 35.8872,6.66086 88.17764,22.41124 116.2835,31.88596 71.48143,24.54203 95.71824,55.08715 95.71824,123.91386 0,67.07949 -41.40717,92.50289 -94.02079,67.10316 z"
       id="path5118"
       style="fill:#ffffff;fill-opacity:1;stroke:#68b6eb;stroke-width:13.61600018;stroke-linecap:round;stroke-linejoin:round;stroke-miterlimit:4;stroke-dasharray:none;stroke-opacity:1;paint-order:stroke fill markers;filter:url(#filter5528)"
       inkscape:connector-curvature="0"
       sodipodi:nodetypes="cscsccccscc" />
    <path
       sodipodi:nodetypes="cscsccccscc"
       inkscape:connector-curvature="0"
       style="fill:#ffffff;fill-opacity:1;stroke:none;stroke-width:13.61600018;stroke-linecap:round;stroke-linejoin:round;stroke-miterlimit:4;stroke-dasharray:none;stroke-opacity:1;paint-order:stroke fill markers"
       id="P"
       d="M 452.64582,351.0177 V 226.03476 c 0,-14.67723 -2.70882,-28.18747 -16.48077,-32.01408 -10.54704,-3.37882 -17.09039,6.41221 -17.09039,21.0794 v 312.9674 l -84.40734,-26.79034 v -373.1616 c 35.8872,6.66086 88.17764,22.41124 116.2835,31.88596 71.48143,24.54203 95.71824,55.08715 95.71824,123.91386 0,67.07949 -41.40717,92.50289 -94.02079,67.10316 z" />
  </g>
  <path
     style="fill:#4c9461;fill-opacity:1"
     d="m 1045.0799,997.14046 v 799.99994 h 800 V 997.14046 Z m 400,80.00004 a 320,320 0 0 1 320,319.9999 320,320 0 0 1 -320,320 320,320 0 0 1 -320,-320 320,320 0 0 1 320,-319.9999 z"
     id="previewMask"
     inkscape:connector-curvature="0" />
</svg>
