<?xml version="1.0" encoding="UTF-8"?>
<svg version="1.1" viewBox="0 0 800 800" xmlns="http://www.w3.org/2000/svg" >
  <defs>
    <filter id="lightS" x="-.08876" y="-.19101" width="1.1775" height="1.382">
      <feGaussianBlur stdDeviation="23.663866"/>
    </filter>
    <filter id="lightP" x="-.11431" y="-.060591" width="1.2286" height="1.1212">
      <feGaussianBlur stdDeviation="10.097236"/>
    </filter>
  </defs>
  <rect width="100%" height="100%" fill="#121212" rx="150px"/>
  <path  fill="#2b98e3" filter="url(#lightS)"
    d="m352.73 356.07c-74.258 30.086-153.96 47.559-224.34 87.039-22.353 16.287-32.005 49.983-17.144 74.301 13.294 24.097 40.046 36.72 65.767 42.858 57.739 17.144 170.61 59.614 238.11 61.161 0.0765-68.644-59.817-197.72-59.861-266.36-0.84294 0.33417-1.6859 0.66834-2.5288 1.0025zm98.587 13.511c-21.149-0.0363-37.412 22.504-33.644 42.674-6.5684 2.3437-13.034 4.9615-19.586 7.3499 9.2e-4 70.146 17.03 131.68 17.031 201.83 88.396-36.822 165.14-51.567 251.33-93.953 20.712-13.928 34.785-40.749 27.466-65.69-7.4735-26.044-31.773-43.585-56.888-50.737-47.616-18.306-99.9-22.45-150.28-16.102-4.8326-14.786-19.78-25.781-35.427-25.363z" />
  <path fill="#fff" filter="url(#lightP)" stroke="#13649b" stroke-linecap="round" stroke-linejoin="round" stroke-width="13.616" style="paint-order:stroke fill markers"
    d="m452.65 405.02v-124.98c0-14.677-2.7088-28.187-16.481-32.014-10.547-3.3788-17.09 6.4122-17.09 21.079v312.97l-84.407-26.79v-373.16c35.887 6.6609 88.178 22.411 116.28 31.886 71.481 24.542 95.718 55.087 95.718 123.91 0 67.079-41.407 92.503-94.021 67.103z" />
  <path fill="#fff"
    d="m654.5 488.23c-10.126 12.772-34.924 21.88-34.924 21.88l-184.49 66.268v-48.869l135.77-48.377c15.408-5.5223 17.773-13.324 5.2502-17.423-12.5-4.1091-35.136-2.9313-50.555 2.6146l-90.471 31.862v-50.719l5.2162-1.764s26.141-9.2519 62.903-13.324c36.759-4.0488 81.771 0.55223 117.1 13.947 39.822 12.584 44.304 31.132 34.194 43.904zm-201.86-83.216c-6.3e-4 5.8e-4 4e-3 9.3e-4 3e-3 8.2e-4zm-272.85 117.39c-40.881-11.513-47.684-35.5-29.051-49.319 17.222-12.759 46.509-22.364 46.509-22.364l121.02-43.033v49.06l-87.092 31.166c-15.384 5.5197-17.75 13.335-5.2476 17.431 12.511 4.096 35.158 2.9313 50.565-2.6015l41.774-15.159v43.891c-2.6487 0.47111-5.6008 0.94225-8.333 1.4002-41.787 6.8283-86.292 3.9782-130.15-10.474z" />
  <path fill="#fff"
    d="m452.65 405.02v-124.98c0-14.677-2.7088-28.187-16.481-32.014-10.547-3.3788-17.09 6.4122-17.09 21.079v312.97l-84.407-26.79v-373.16c35.887 6.6609 88.178 22.411 116.28 31.886 71.481 24.542 95.718 55.087 95.718 123.91 0 67.079-41.407 92.503-94.021 67.103z" />
</svg>
